<svg xmlns="http://www.w3.org/2000/svg" version="1.1" width="1416" height="755" preserveAspectRatio="none" id="SVG" viewBox="-20 -46 1618.18505859375 827.5" style="stroke-width: 2px; font-size: 11px; font-family: sans-serif; shape-rendering: crispedges;"><rect id="backgroundRect" x="-20" y="-46" width="1618.18505859375" height="827.5" fill="white"></rect><path d="M 1415.9999999999998 755 H 1405.6782446608188 V 741.9827586206897" fill="none" stroke-width="2" class="treeEdge edgetrait_Uy5jZXJldmlzaWFlfFMyODhjfElNQTI=" vector-effect="non-scaling-stroke" id="node#40" stroke="#002de5"></path><path d="M 1415.9999999999998 728.9655172413793 H 1405.6782446608188 V 741.9827586206897" fill="none" stroke-width="2" class="treeEdge edgetrait_Uy5jZXJldmlzaWFlfFlQUzYwNg==" vector-effect="non-scaling-stroke" id="node#41" stroke="#00e5e5"></path><path d="M 1415.9999999999998 702.9310344827586 H 1400.490878195996 V 722.4568965517241" fill="none" stroke-width="2" class="treeEdge edgetrait_Uy5jZXJldmlzaWFlfFMyODhjfElNQTM=" vector-effect="non-scaling-stroke" id="node#36" stroke="#005be5"></path><path d="M 1415.9999999999998 676.8965517241379 H 1331.011434067915 V 699.676724137931" fill="none" stroke-width="2" class="treeEdge edgetrait_Uy5wYXJhZG94dXN8VUZSSjUwNzkx" vector-effect="non-scaling-stroke" id="node#34" stroke="#e52d00"></path><path d="M 1415.9999999999998 650.8620689655172 H 1297.2496584296405 V 675.2693965517241" fill="none" stroke-width="2" class="treeEdge edgetrait_Uy5taWthdGFlfElGTzE4MTV8YzYzMw==" vector-effect="non-scaling-stroke" id="node#32" stroke="#7a9900"></path><path d="M 1416 624.8275862068965 H 1273.2105704446471 V 650.0484913793102" fill="none" stroke-width="2" class="treeEdge edgetrait_Uy5jZXJldmlzaWFlfFMyODhjfElNQTE=" vector-effect="non-scaling-stroke" id="node#42" stroke="#0000e5"></path><path d="M 1415.9999999999998 598.7931034482759 H 1260.6205383770684 V 624.4207974137931" fill="none" stroke-width="2" class="treeEdge edgetrait_Uy5iYXlhbnVzfE1ZQzYyMw==" vector-effect="non-scaling-stroke" id="node#29" stroke="#b700e5"></path><path d="M 1416 572.7586206896551 H 1251.5918275692402 V 598.5897090517241" fill="none" stroke-width="2" class="treeEdge edgetrait_Uy5rdWRyaWF2emV2aWl8SUZPMTgwMnxjMTU2NQ==" vector-effect="non-scaling-stroke" id="node#27" stroke="#009900"></path><path d="M 1416 546.7241379310345 H 1310.3310273743537 V 533.7068965517241" fill="none" stroke-width="2" class="treeEdge edgetrait_Uy5wYXJhZG94dXN8Tl80NQ==" vector-effect="non-scaling-stroke" id="node#24" stroke="#e55b00"></path><path d="M 1416 520.6896551724138 H 1310.3310273743537 V 533.7068965517241" fill="none" stroke-width="2" class="treeEdge edgetrait_Uy5taWthdGFlfElGTzE4MTV8Yzc4OQ==" vector-effect="non-scaling-stroke" id="node#25" stroke="#999800"></path><path d="M 1415.9999999999998 494.6551724137931 H 1133.6998897759156 V 530.4017376077586" fill="none" stroke-width="2" class="treeEdge edgetrait_Uy5rdWRyaWF2emV2aWl8SUZPMTgwMnxjMTg4OA==" vector-effect="non-scaling-stroke" id="node#43" stroke="#1e9900"></path><path d="M 1415.9999999999998 468.62068965517244 H 1064.1558146563834 V 499.5112136314655" fill="none" stroke-width="2" class="treeEdge edgetrait_Sy50aGVybW90b2xlcmFuc3xHSV8yNTU3MTEwNTY=" vector-effect="non-scaling-stroke" id="node#44" stroke="#e5002d"></path><path d="M 1415.9999999999998 442.58620689655174 H 1412.535835721648 V 429.5689655172414" fill="none" stroke-width="2" class="treeEdge edgetrait_Uy5jZXJldmlzaWFlfE1BTDMy" vector-effect="non-scaling-stroke" id="node#16" stroke="#2d00e5"></path><path d="M 1415.9999999999998 416.55172413793105 H 1412.535835721648 V 429.5689655172414" fill="none" stroke-width="2" class="treeEdge edgetrait_Uy5jZXJldmlzaWFlfFlJSWMxN19FNQ==" vector-effect="non-scaling-stroke" id="node#17" stroke="#00b7e5"></path><path d="M 1415.9999999999998 390.5172413793103 H 1407.3276849448848 V 410.0431034482759" fill="none" stroke-width="2" class="treeEdge edgetrait_Uy5jZXJldmlzaWFlfE1BTDEy" vector-effect="non-scaling-stroke" id="node#14" stroke="#5b00e5"></path><path d="M 1415.9999999999998 364.48275862068965 H 1262.6488056493074 V 387.2629310344828" fill="none" stroke-width="2" class="treeEdge edgetrait_Uy5wYXJhZG94dXN8Q0JTNDMy" vector-effect="non-scaling-stroke" id="node#18" stroke="#997a00"></path><path d="M 1415.9999999999998 338.44827586206895 H 1223.6865021920448 V 362.8556034482759" fill="none" stroke-width="2" class="treeEdge edgetrait_Uy5taWthdGFlfElGTzE4MTV8YzIwMw==" vector-effect="non-scaling-stroke" id="node#11" stroke="#5b9900"></path><path d="M 1415.9999999999998 312.4137931034483 H 1102.8935545414033 V 337.63469827586204" fill="none" stroke-width="2" class="treeEdge edgetrait_Uy5rdWRyaWF2emV2aWl8SUZPMTgwMnxjMTk3MA==" vector-effect="non-scaling-stroke" id="node#9" stroke="#3d9900"></path><path d="M 1415.9999999999998 286.37931034482756 H 937.7637193061631 V 312.0070043103449" fill="none" stroke-width="2" class="treeEdge edgetrait_Sy50aGVybW90b2xlcmFuc3xHSV8yNTU3MTU4Njc=" vector-effect="non-scaling-stroke" id="node#19" stroke="#e5005b"></path><path d="M 1415.9999999999998 260.3448275862069 H 1146.5812913737552 V 247.32758620689654" fill="none" stroke-width="2" class="treeEdge edgetrait_Uy5rbHV5dmVyaWl8U0FLTDBBMDAxNTRn" vector-effect="non-scaling-stroke" id="node#53" stroke="#00997a"></path><path d="M 1415.9999999999998 234.31034482758616 H 1146.5812913737552 V 247.32758620689654" fill="none" stroke-width="2" class="treeEdge edgetrait_Uy5rbHV5dmVyaWl8U0FLTDBDMDAxNzZn" vector-effect="non-scaling-stroke" id="node#54" stroke="#00991e"></path><path d="M 1415.9999999999998 208.27586206896552 H 1139.17717141695 V 195.25862068965515" fill="none" stroke-width="2" class="treeEdge edgetrait_Uy5rbHV5dmVyaWl8U0FLTDBBMDU2OThn" vector-effect="non-scaling-stroke" id="node#56" stroke="#00993d"></path><path d="M 1415.9999999999998 182.24137931034485 H 1139.17717141695 V 195.25862068965515" fill="none" stroke-width="2" class="treeEdge edgetrait_Uy5rbHV5dmVyaWl8U0FLTDBBMDU2NTRn" vector-effect="non-scaling-stroke" id="node#57" stroke="#00995b"></path><path d="M 1415.9999999999998 156.20689655172413 H 1327.0965171203607 V 143.18965517241384" fill="none" stroke-width="2" class="treeEdge edgetrait_Uy5jZXJldmlzaWFlfDI3MzYxNE4=" vector-effect="non-scaling-stroke" id="node#49" stroke="#8900e5"></path><path d="M 1415.9999999999998 130.17241379310346 H 1327.0965171203607 V 143.18965517241384" fill="none" stroke-width="2" class="treeEdge edgetrait_Uy5jZXJldmlzaWFlfFMyODhjfElNQTU=" vector-effect="non-scaling-stroke" id="node#50" stroke="#0089e5"></path><path d="M 1415.9999999999998 104.1379310344828 H 1234.0986421667271 V 123.66379310344831" fill="none" stroke-width="2" class="treeEdge edgetrait_Uy5wYXJhZG94dXN8REJWUEc2MzA0" vector-effect="non-scaling-stroke" id="node#47" stroke="#e58900"></path><path d="M 1415.9999999999998 78.10344827586206 H 658.2999856191881 V 65.08620689655177" fill="none" stroke-width="2" class="treeEdge edgetrait_Sy50aGVybW90b2xlcmFuc3xHSV8yNTU3MTkxODc=" vector-effect="non-scaling-stroke" id="node#59" stroke="#e50089"></path><path d="M 1415.9999999999998 52.0689655172414 H 658.2999856191881 V 65.08620689655177" fill="none" stroke-width="2" class="treeEdge edgetrait_Sy50aGVybW90b2xlcmFuc3xHSV8yNTU3MTk2NjA=" vector-effect="non-scaling-stroke" id="node#60" stroke="#e500b7"></path><path d="M 1415.9999999999998 26.03448275862066 H 442.3018172344117 V 101.56848775929419" fill="none" stroke-width="2" class="treeEdge edgetrait_Sy5sYWN0aXN8R0lfNTAzMTI2Nzg=" vector-effect="non-scaling-stroke" id="node#3" stroke="#e50000"></path><path d="M 1415.9999999999998 0 H 14.019801980198032 V 50.78424387964709" fill="none" stroke-width="2" class="treeEdge edgetrait_TC5lbG9uZ2lzcG9ydXN8R0lfMTQ5MjQzODA4" vector-effect="non-scaling-stroke" id="node#1" stroke="#e500e5"></path><path d="M 1405.6782446608188 741.9827586206897 H 1400.490878195996 V 722.4568965517241" fill="none" stroke="black" stroke-width="2" class="treeEdge" vector-effect="non-scaling-stroke" id="node#39"></path><path d="M 1400.490878195996 722.4568965517241 H 1331.011434067915 V 699.676724137931" fill="none" stroke="black" stroke-width="2" class="treeEdge" vector-effect="non-scaling-stroke" id="node#35"></path><path d="M 1331.011434067915 699.676724137931 H 1297.2496584296405 V 675.2693965517241" fill="none" stroke="black" stroke-width="2" class="treeEdge" vector-effect="non-scaling-stroke" id="node#33"></path><path d="M 1297.2496584296405 675.2693965517241 H 1273.2105704446471 V 650.0484913793102" fill="none" stroke="black" stroke-width="2" class="treeEdge" vector-effect="non-scaling-stroke" id="node#31"></path><path d="M 1273.2105704446471 650.0484913793102 H 1260.6205383770684 V 624.4207974137931" fill="none" stroke="black" stroke-width="2" class="treeEdge" vector-effect="non-scaling-stroke" id="node#30"></path><path d="M 1260.6205383770684 624.4207974137931 H 1251.5918275692402 V 598.5897090517241" fill="none" stroke="black" stroke-width="2" class="treeEdge" vector-effect="non-scaling-stroke" id="node#28"></path><path d="M 1251.5918275692402 598.5897090517241 H 1183.368496437634 V 566.1483028017241" fill="none" stroke="black" stroke-width="2" class="treeEdge" vector-effect="non-scaling-stroke" id="node#26"></path><path d="M 1310.3310273743537 533.7068965517241 H 1183.368496437634 V 566.1483028017241" fill="none" stroke="black" stroke-width="2" class="treeEdge" vector-effect="non-scaling-stroke" id="node#23"></path><path d="M 1183.368496437634 566.1483028017241 H 1133.6998897759156 V 530.4017376077586" fill="none" stroke="black" stroke-width="2" class="treeEdge" vector-effect="non-scaling-stroke" id="node#22"></path><path d="M 1133.6998897759156 530.4017376077586 H 1064.1558146563834 V 499.5112136314655" fill="none" stroke="black" stroke-width="2" class="treeEdge" vector-effect="non-scaling-stroke" id="node#21"></path><path d="M 1064.1558146563834 499.5112136314655 H 735.9984811338684 V 405.7591089709051" fill="none" stroke="black" stroke-width="2" class="treeEdge" vector-effect="non-scaling-stroke" id="node#20"></path><path d="M 1412.535835721648 429.5689655172414 H 1407.3276849448848 V 410.0431034482759" fill="none" stroke="black" stroke-width="2" class="treeEdge" vector-effect="non-scaling-stroke" id="node#15"></path><path d="M 1407.3276849448848 410.0431034482759 H 1262.6488056493074 V 387.2629310344828" fill="none" stroke="black" stroke-width="2" class="treeEdge" vector-effect="non-scaling-stroke" id="node#13"></path><path d="M 1262.6488056493074 387.2629310344828 H 1223.6865021920448 V 362.8556034482759" fill="none" stroke="black" stroke-width="2" class="treeEdge" vector-effect="non-scaling-stroke" id="node#12"></path><path d="M 1223.6865021920448 362.8556034482759 H 1102.8935545414033 V 337.63469827586204" fill="none" stroke="black" stroke-width="2" class="treeEdge" vector-effect="non-scaling-stroke" id="node#10"></path><path d="M 1102.8935545414033 337.63469827586204 H 937.7637193061631 V 312.0070043103449" fill="none" stroke="black" stroke-width="2" class="treeEdge" vector-effect="non-scaling-stroke" id="node#8"></path><path d="M 937.7637193061631 312.0070043103449 H 735.9984811338684 V 405.7591089709051" fill="none" stroke="black" stroke-width="2" class="treeEdge" vector-effect="non-scaling-stroke" id="node#7"></path><path d="M 735.9984811338684 405.7591089709051 H 559.8767987171819 V 289.1187786233836" fill="none" stroke="black" stroke-width="2" class="treeEdge" vector-effect="non-scaling-stroke" id="node#6"></path><path d="M 1146.5812913737552 247.32758620689654 H 837.3745369504896 V 221.29310344827587" fill="none" stroke="black" stroke-width="2" class="treeEdge" vector-effect="non-scaling-stroke" id="node#52"></path><path d="M 1139.17717141695 195.25862068965515 H 837.3745369504896 V 221.29310344827587" fill="none" stroke="black" stroke-width="2" class="treeEdge" vector-effect="non-scaling-stroke" id="node#55"></path><path d="M 837.3745369504896 221.29310344827587 H 628.7507152794753 V 172.47844827586206" fill="none" stroke="black" stroke-width="2" class="treeEdge" vector-effect="non-scaling-stroke" id="node#51"></path><path d="M 1327.0965171203607 143.18965517241384 H 1234.0986421667271 V 123.66379310344831" fill="none" stroke="black" stroke-width="2" class="treeEdge" vector-effect="non-scaling-stroke" id="node#48"></path><path d="M 1234.0986421667271 123.66379310344831 H 628.7507152794753 V 172.47844827586206" fill="none" stroke="black" stroke-width="2" class="treeEdge" vector-effect="non-scaling-stroke" id="node#46"></path><path d="M 628.7507152794753 172.47844827586206 H 559.8767987171819 V 289.1187786233836" fill="none" stroke="black" stroke-width="2" class="treeEdge" vector-effect="non-scaling-stroke" id="node#45"></path><path d="M 559.8767987171819 289.1187786233836 H 467.6759364464482 V 177.10249275996765" fill="none" stroke="black" stroke-width="2" class="treeEdge" vector-effect="non-scaling-stroke" id="node#5"></path><path d="M 658.2999856191881 65.08620689655177 H 467.6759364464482 V 177.10249275996765" fill="none" stroke="black" stroke-width="2" class="treeEdge" vector-effect="non-scaling-stroke" id="node#58"></path><path d="M 467.6759364464482 177.10249275996765 H 442.3018172344117 V 101.56848775929419" fill="none" stroke="black" stroke-width="2" class="treeEdge" vector-effect="non-scaling-stroke" id="node#4"></path><path d="M 442.3018172344117 101.56848775929419 H 14.019801980198032 V 50.78424387964709" fill="none" stroke="black" stroke-width="2" class="treeEdge" vector-effect="non-scaling-stroke" id="node#2"></path><path d="M 14.019801980198032 50.78424387964709 H 0 V 50.78424387964709" fill="none" stroke="black" stroke-width="2" class="treeEdge" vector-effect="non-scaling-stroke" id="node#0"></path><ellipse cx="1415.9999999999998" cy="755" rx="3.1221495735359786" ry="2.9944000573023124" shape-rendering="auto" class="nodeMark nodetrait_Uy5jZXJldmlzaWFlfFMyODhjfElNQTI=" fill="#002de5"></ellipse><ellipse cx="1415.9999999999998" cy="728.9655172413793" rx="3.1221495735359786" ry="2.9944000573023124" shape-rendering="auto" class="nodeMark nodetrait_Uy5jZXJldmlzaWFlfFlQUzYwNg==" fill="#00e5e5"></ellipse><ellipse cx="1415.9999999999998" cy="702.9310344827586" rx="3.1221495735359786" ry="2.9944000573023124" shape-rendering="auto" class="nodeMark nodetrait_Uy5jZXJldmlzaWFlfFMyODhjfElNQTM=" fill="#005be5"></ellipse><ellipse cx="1415.9999999999998" cy="676.8965517241379" rx="3.1221495735359786" ry="2.9944000573023124" shape-rendering="auto" class="nodeMark nodetrait_Uy5wYXJhZG94dXN8VUZSSjUwNzkx" fill="#e52d00"></ellipse><ellipse cx="1415.9999999999998" cy="650.8620689655172" rx="3.1221495735359786" ry="2.9944000573023124" shape-rendering="auto" class="nodeMark nodetrait_Uy5taWthdGFlfElGTzE4MTV8YzYzMw==" fill="#7a9900"></ellipse><ellipse cx="1416" cy="624.8275862068965" rx="3.1221495735359786" ry="2.9944000573023124" shape-rendering="auto" class="nodeMark nodetrait_Uy5jZXJldmlzaWFlfFMyODhjfElNQTE=" fill="#0000e5"></ellipse><ellipse cx="1415.9999999999998" cy="598.7931034482759" rx="3.1221495735359786" ry="2.9944000573023124" shape-rendering="auto" class="nodeMark nodetrait_Uy5iYXlhbnVzfE1ZQzYyMw==" fill="#b700e5"></ellipse><ellipse cx="1416" cy="572.7586206896551" rx="3.1221495735359786" ry="2.9944000573023124" shape-rendering="auto" class="nodeMark nodetrait_Uy5rdWRyaWF2emV2aWl8SUZPMTgwMnxjMTU2NQ==" fill="#009900"></ellipse><ellipse cx="1416" cy="546.7241379310345" rx="3.1221495735359786" ry="2.9944000573023124" shape-rendering="auto" class="nodeMark nodetrait_Uy5wYXJhZG94dXN8Tl80NQ==" fill="#e55b00"></ellipse><ellipse cx="1416" cy="520.6896551724138" rx="3.1221495735359786" ry="2.9944000573023124" shape-rendering="auto" class="nodeMark nodetrait_Uy5taWthdGFlfElGTzE4MTV8Yzc4OQ==" fill="#999800"></ellipse><ellipse cx="1415.9999999999998" cy="494.6551724137931" rx="3.1221495735359786" ry="2.9944000573023124" shape-rendering="auto" class="nodeMark nodetrait_Uy5rdWRyaWF2emV2aWl8SUZPMTgwMnxjMTg4OA==" fill="#1e9900"></ellipse><ellipse cx="1415.9999999999998" cy="468.62068965517244" rx="3.1221495735359786" ry="2.9944000573023124" shape-rendering="auto" class="nodeMark nodetrait_Sy50aGVybW90b2xlcmFuc3xHSV8yNTU3MTEwNTY=" fill="#e5002d"></ellipse><ellipse cx="1415.9999999999998" cy="442.58620689655174" rx="3.1221495735359786" ry="2.9944000573023124" shape-rendering="auto" class="nodeMark nodetrait_Uy5jZXJldmlzaWFlfE1BTDMy" fill="#2d00e5"></ellipse><ellipse cx="1415.9999999999998" cy="416.55172413793105" rx="3.1221495735359786" ry="2.9944000573023124" shape-rendering="auto" class="nodeMark nodetrait_Uy5jZXJldmlzaWFlfFlJSWMxN19FNQ==" fill="#00b7e5"></ellipse><ellipse cx="1415.9999999999998" cy="390.5172413793103" rx="3.1221495735359786" ry="2.9944000573023124" shape-rendering="auto" class="nodeMark nodetrait_Uy5jZXJldmlzaWFlfE1BTDEy" fill="#5b00e5"></ellipse><ellipse cx="1415.9999999999998" cy="364.48275862068965" rx="3.1221495735359786" ry="2.9944000573023124" shape-rendering="auto" class="nodeMark nodetrait_Uy5wYXJhZG94dXN8Q0JTNDMy" fill="#997a00"></ellipse><ellipse cx="1415.9999999999998" cy="338.44827586206895" rx="3.1221495735359786" ry="2.9944000573023124" shape-rendering="auto" class="nodeMark nodetrait_Uy5taWthdGFlfElGTzE4MTV8YzIwMw==" fill="#5b9900"></ellipse><ellipse cx="1415.9999999999998" cy="312.4137931034483" rx="3.1221495735359786" ry="2.9944000573023124" shape-rendering="auto" class="nodeMark nodetrait_Uy5rdWRyaWF2emV2aWl8SUZPMTgwMnxjMTk3MA==" fill="#3d9900"></ellipse><ellipse cx="1415.9999999999998" cy="286.37931034482756" rx="3.1221495735359786" ry="2.9944000573023124" shape-rendering="auto" class="nodeMark nodetrait_Sy50aGVybW90b2xlcmFuc3xHSV8yNTU3MTU4Njc=" fill="#e5005b"></ellipse><ellipse cx="1415.9999999999998" cy="260.3448275862069" rx="3.1221495735359786" ry="2.9944000573023124" shape-rendering="auto" class="nodeMark nodetrait_Uy5rbHV5dmVyaWl8U0FLTDBBMDAxNTRn" fill="#00997a"></ellipse><ellipse cx="1415.9999999999998" cy="234.31034482758616" rx="3.1221495735359786" ry="2.9944000573023124" shape-rendering="auto" class="nodeMark nodetrait_Uy5rbHV5dmVyaWl8U0FLTDBDMDAxNzZn" fill="#00991e"></ellipse><ellipse cx="1415.9999999999998" cy="208.27586206896552" rx="3.1221495735359786" ry="2.9944000573023124" shape-rendering="auto" class="nodeMark nodetrait_Uy5rbHV5dmVyaWl8U0FLTDBBMDU2OThn" fill="#00993d"></ellipse><ellipse cx="1415.9999999999998" cy="182.24137931034485" rx="3.1221495735359786" ry="2.9944000573023124" shape-rendering="auto" class="nodeMark nodetrait_Uy5rbHV5dmVyaWl8U0FLTDBBMDU2NTRn" fill="#00995b"></ellipse><ellipse cx="1415.9999999999998" cy="156.20689655172413" rx="3.1221495735359786" ry="2.9944000573023124" shape-rendering="auto" class="nodeMark nodetrait_Uy5jZXJldmlzaWFlfDI3MzYxNE4=" fill="#8900e5"></ellipse><ellipse cx="1415.9999999999998" cy="130.17241379310346" rx="3.1221495735359786" ry="2.9944000573023124" shape-rendering="auto" class="nodeMark nodetrait_Uy5jZXJldmlzaWFlfFMyODhjfElNQTU=" fill="#0089e5"></ellipse><ellipse cx="1415.9999999999998" cy="104.1379310344828" rx="3.1221495735359786" ry="2.9944000573023124" shape-rendering="auto" class="nodeMark nodetrait_Uy5wYXJhZG94dXN8REJWUEc2MzA0" fill="#e58900"></ellipse><ellipse cx="1415.9999999999998" cy="78.10344827586206" rx="3.1221495735359786" ry="2.9944000573023124" shape-rendering="auto" class="nodeMark nodetrait_Sy50aGVybW90b2xlcmFuc3xHSV8yNTU3MTkxODc=" fill="#e50089"></ellipse><ellipse cx="1415.9999999999998" cy="52.0689655172414" rx="3.1221495735359786" ry="2.9944000573023124" shape-rendering="auto" class="nodeMark nodetrait_Sy50aGVybW90b2xlcmFuc3xHSV8yNTU3MTk2NjA=" fill="#e500b7"></ellipse><ellipse cx="1415.9999999999998" cy="26.03448275862066" rx="3.1221495735359786" ry="2.9944000573023124" shape-rendering="auto" class="nodeMark nodetrait_Sy5sYWN0aXN8R0lfNTAzMTI2Nzg=" fill="#e50000"></ellipse><ellipse cx="1415.9999999999998" cy="0" rx="3.1221495735359786" ry="2.9944000573023124" shape-rendering="auto" class="nodeMark nodetrait_TC5lbG9uZ2lzcG9ydXN8R0lfMTQ5MjQzODA4" fill="#e500e5"></ellipse><text x="1415.9999999999998" y="755" dominant-baseline="central" transform="matrix(1.14279 0 0 1.09603 0 0) matrix(1 0 0 1 -176.923 -66.148)">S.cerevisiae|S288c|IMA2</text><text x="1415.9999999999998" y="728.9655172413793" dominant-baseline="central" transform="matrix(1.14279 0 0 1.09603 0 0) matrix(1 0 0 1 -176.923 -63.8671)">S.cerevisiae|YPS606</text><text x="1415.9999999999998" y="702.9310344827586" dominant-baseline="central" transform="matrix(1.14279 0 0 1.09603 0 0) matrix(1 0 0 1 -176.923 -61.5861)">S.cerevisiae|S288c|IMA3</text><text x="1415.9999999999998" y="676.8965517241379" dominant-baseline="central" transform="matrix(1.14279 0 0 1.09603 0 0) matrix(1 0 0 1 -176.923 -59.3051)">S.paradoxus|UFRJ50791</text><text x="1415.9999999999998" y="650.8620689655172" dominant-baseline="central" transform="matrix(1.14279 0 0 1.09603 0 0) matrix(1 0 0 1 -176.923 -57.0242)">S.mikatae|IFO1815|c633</text><text x="1416" y="624.8275862068965" dominant-baseline="central" transform="matrix(1.14279 0 0 1.09603 0 0) matrix(1 0 0 1 -176.923 -54.7432)">S.cerevisiae|S288c|IMA1</text><text x="1415.9999999999998" y="598.7931034482759" dominant-baseline="central" transform="matrix(1.14279 0 0 1.09603 0 0) matrix(1 0 0 1 -176.923 -52.4622)">S.bayanus|MYC623</text><text x="1416" y="572.7586206896551" dominant-baseline="central" transform="matrix(1.14279 0 0 1.09603 0 0) matrix(1 0 0 1 -176.923 -50.1813)">S.kudriavzevii|IFO1802|c1565</text><text x="1416" y="546.7241379310345" dominant-baseline="central" transform="matrix(1.14279 0 0 1.09603 0 0) matrix(1 0 0 1 -176.923 -47.9003)">S.paradoxus|N_45</text><text x="1416" y="520.6896551724138" dominant-baseline="central" transform="matrix(1.14279 0 0 1.09603 0 0) matrix(1 0 0 1 -176.923 -45.6193)">S.mikatae|IFO1815|c789</text><text x="1415.9999999999998" y="494.6551724137931" dominant-baseline="central" transform="matrix(1.14279 0 0 1.09603 0 0) matrix(1 0 0 1 -176.923 -43.3384)">S.kudriavzevii|IFO1802|c1888</text><text x="1415.9999999999998" y="468.62068965517244" dominant-baseline="central" transform="matrix(1.14279 0 0 1.09603 0 0) matrix(1 0 0 1 -176.923 -41.0574)">K.thermotolerans|GI_255711056</text><text x="1415.9999999999998" y="442.58620689655174" dominant-baseline="central" transform="matrix(1.14279 0 0 1.09603 0 0) matrix(1 0 0 1 -176.923 -38.7764)">S.cerevisiae|MAL32</text><text x="1415.9999999999998" y="416.55172413793105" dominant-baseline="central" transform="matrix(1.14279 0 0 1.09603 0 0) matrix(1 0 0 1 -176.923 -36.4955)">S.cerevisiae|YIIc17_E5</text><text x="1415.9999999999998" y="390.5172413793103" dominant-baseline="central" transform="matrix(1.14279 0 0 1.09603 0 0) matrix(1 0 0 1 -176.923 -34.2145)">S.cerevisiae|MAL12</text><text x="1415.9999999999998" y="364.48275862068965" dominant-baseline="central" transform="matrix(1.14279 0 0 1.09603 0 0) matrix(1 0 0 1 -176.923 -31.9335)">S.paradoxus|CBS432</text><text x="1415.9999999999998" y="338.44827586206895" dominant-baseline="central" transform="matrix(1.14279 0 0 1.09603 0 0) matrix(1 0 0 1 -176.923 -29.6526)">S.mikatae|IFO1815|c203</text><text x="1415.9999999999998" y="312.4137931034483" dominant-baseline="central" transform="matrix(1.14279 0 0 1.09603 0 0) matrix(1 0 0 1 -176.923 -27.3716)">S.kudriavzevii|IFO1802|c1970</text><text x="1415.9999999999998" y="286.37931034482756" dominant-baseline="central" transform="matrix(1.14279 0 0 1.09603 0 0) matrix(1 0 0 1 -176.923 -25.0906)">K.thermotolerans|GI_255715867</text><text x="1415.9999999999998" y="260.3448275862069" dominant-baseline="central" transform="matrix(1.14279 0 0 1.09603 0 0) matrix(1 0 0 1 -176.923 -22.8097)">S.kluyverii|SAKL0A00154g</text><text x="1415.9999999999998" y="234.31034482758616" dominant-baseline="central" transform="matrix(1.14279 0 0 1.09603 0 0) matrix(1 0 0 1 -176.923 -20.5287)">S.kluyverii|SAKL0C00176g</text><text x="1415.9999999999998" y="208.27586206896552" dominant-baseline="central" transform="matrix(1.14279 0 0 1.09603 0 0) matrix(1 0 0 1 -176.923 -18.2477)">S.kluyverii|SAKL0A05698g</text><text x="1415.9999999999998" y="182.24137931034485" dominant-baseline="central" transform="matrix(1.14279 0 0 1.09603 0 0) matrix(1 0 0 1 -176.923 -15.9668)">S.kluyverii|SAKL0A05654g</text><text x="1415.9999999999998" y="156.20689655172413" dominant-baseline="central" transform="matrix(1.14279 0 0 1.09603 0 0) matrix(1 0 0 1 -176.923 -13.6858)">S.cerevisiae|273614N</text><text x="1415.9999999999998" y="130.17241379310346" dominant-baseline="central" transform="matrix(1.14279 0 0 1.09603 0 0) matrix(1 0 0 1 -176.923 -11.4048)">S.cerevisiae|S288c|IMA5</text><text x="1415.9999999999998" y="104.1379310344828" dominant-baseline="central" transform="matrix(1.14279 0 0 1.09603 0 0) matrix(1 0 0 1 -176.923 -9.12387)">S.paradoxus|DBVPG6304</text><text x="1415.9999999999998" y="78.10344827586206" dominant-baseline="central" transform="matrix(1.14279 0 0 1.09603 0 0) matrix(1 0 0 1 -176.923 -6.8429)">K.thermotolerans|GI_255719187</text><text x="1415.9999999999998" y="52.0689655172414" dominant-baseline="central" transform="matrix(1.14279 0 0 1.09603 0 0) matrix(1 0 0 1 -176.923 -4.56193)">K.thermotolerans|GI_255719660</text><text x="1415.9999999999998" y="26.03448275862066" dominant-baseline="central" transform="matrix(1.14279 0 0 1.09603 0 0) matrix(1 0 0 1 -176.923 -2.28097)">K.lactis|GI_50312678</text><text x="1415.9999999999998" y="0" dominant-baseline="central" transform="matrix(1.14279 0 0 1.09603 0 0) matrix(1 0 0 1 -176.923 0)">L.elongisporus|GI_149243808</text><text x="1410.6782446608188" y="741.9827586206897" pixelOffsetX="5" pixelOffsetY="0" dominant-baseline="central" class="internalText" transform="matrix(1.14279 0 0 1.09603 0 0) matrix(1 0 0 1 -176.258 -65.0076) translate(0.624728 0)"></text><text x="1405.490878195996" y="722.4568965517241" pixelOffsetX="5" pixelOffsetY="0" dominant-baseline="central" class="internalText" transform="matrix(1.14279 0 0 1.09603 0 0) matrix(1 0 0 1 -175.61 -63.2968) translate(0.624728 0)"></text><text x="1336.011434067915" y="699.676724137931" pixelOffsetX="5" pixelOffsetY="0" dominant-baseline="central" class="internalText" transform="matrix(1.14279 0 0 1.09603 0 0) matrix(1 0 0 1 -166.929 -61.301) translate(0.624728 0)"></text><text x="1302.2496584296405" y="675.2693965517241" pixelOffsetX="5" pixelOffsetY="0" dominant-baseline="central" class="internalText" transform="matrix(1.14279 0 0 1.09603 0 0) matrix(1 0 0 1 -162.71 -59.1626) translate(0.624728 0)"></text><text x="1278.2105704446471" y="650.0484913793102" pixelOffsetX="5" pixelOffsetY="0" dominant-baseline="central" class="internalText" transform="matrix(1.14279 0 0 1.09603 0 0) matrix(1 0 0 1 -159.707 -56.9529) translate(0.624728 0)"></text><text x="1265.6205383770684" y="624.4207974137931" pixelOffsetX="5" pixelOffsetY="0" dominant-baseline="central" class="internalText" transform="matrix(1.14279 0 0 1.09603 0 0) matrix(1 0 0 1 -158.134 -54.7076) translate(0.624728 0)"></text><text x="1256.5918275692402" y="598.5897090517241" pixelOffsetX="5" pixelOffsetY="0" dominant-baseline="central" class="internalText" transform="matrix(1.14279 0 0 1.09603 0 0) matrix(1 0 0 1 -157.006 -52.4444) translate(0.624728 0)"></text><text x="1315.3310273743537" y="533.7068965517241" pixelOffsetX="5" pixelOffsetY="0" dominant-baseline="central" class="internalText" transform="matrix(1.14279 0 0 1.09603 0 0) matrix(1 0 0 1 -164.345 -46.7598) translate(0.624728 0)"></text><text x="1188.368496437634" y="566.1483028017241" pixelOffsetX="5" pixelOffsetY="0" dominant-baseline="central" class="internalText" transform="matrix(1.14279 0 0 1.09603 0 0) matrix(1 0 0 1 -148.481 -49.6021) translate(0.624728 0)"></text><text x="1138.6998897759156" y="530.4017376077586" pixelOffsetX="5" pixelOffsetY="0" dominant-baseline="central" class="internalText" transform="matrix(1.14279 0 0 1.09603 0 0) matrix(1 0 0 1 -142.276 -46.4702) translate(0.624728 0)"></text><text x="1069.1558146563834" y="499.5112136314655" pixelOffsetX="5" pixelOffsetY="0" dominant-baseline="central" class="internalText" transform="matrix(1.14279 0 0 1.09603 0 0) matrix(1 0 0 1 -133.586 -43.7638) translate(0.624728 0)"></text><text x="1417.535835721648" y="429.5689655172414" pixelOffsetX="5" pixelOffsetY="0" dominant-baseline="central" class="internalText" transform="matrix(1.14279 0 0 1.09603 0 0) matrix(1 0 0 1 -177.115 -37.636) translate(0.624728 0)"></text><text x="1412.3276849448848" y="410.0431034482759" pixelOffsetX="5" pixelOffsetY="0" dominant-baseline="central" class="internalText" transform="matrix(1.14279 0 0 1.09603 0 0) matrix(1 0 0 1 -176.464 -35.9252) translate(0.624728 0)"></text><text x="1267.6488056493074" y="387.2629310344828" pixelOffsetX="5" pixelOffsetY="0" dominant-baseline="central" class="internalText" transform="matrix(1.14279 0 0 1.09603 0 0) matrix(1 0 0 1 -158.387 -33.9294) translate(0.624728 0)"></text><text x="1228.6865021920448" y="362.8556034482759" pixelOffsetX="5" pixelOffsetY="0" dominant-baseline="central" class="internalText" transform="matrix(1.14279 0 0 1.09603 0 0) matrix(1 0 0 1 -153.519 -31.791) translate(0.624728 0)"></text><text x="1107.8935545414033" y="337.63469827586204" pixelOffsetX="5" pixelOffsetY="0" dominant-baseline="central" class="internalText" transform="matrix(1.14279 0 0 1.09603 0 0) matrix(1 0 0 1 -138.426 -29.5813) translate(0.624728 0)"></text><text x="942.7637193061631" y="312.0070043103449" pixelOffsetX="5" pixelOffsetY="0" dominant-baseline="central" class="internalText" transform="matrix(1.14279 0 0 1.09603 0 0) matrix(1 0 0 1 -117.794 -27.336) translate(0.624728 0)"></text><text x="740.9984811338684" y="405.7591089709051" pixelOffsetX="5" pixelOffsetY="0" dominant-baseline="central" class="internalText" transform="matrix(1.14279 0 0 1.09603 0 0) matrix(1 0 0 1 -92.5845 -35.5499) translate(0.624728 0)"></text><text x="1151.5812913737552" y="247.32758620689654" pixelOffsetX="5" pixelOffsetY="0" dominant-baseline="central" class="internalText" transform="matrix(1.14279 0 0 1.09603 0 0) matrix(1 0 0 1 -143.885 -21.6692) translate(0.624728 0)"></text><text x="1144.17717141695" y="195.25862068965515" pixelOffsetX="5" pixelOffsetY="0" dominant-baseline="central" class="internalText" transform="matrix(1.14279 0 0 1.09603 0 0) matrix(1 0 0 1 -142.96 -17.1073) translate(0.624728 0)"></text><text x="842.3745369504896" y="221.29310344827587" pixelOffsetX="5" pixelOffsetY="0" dominant-baseline="central" class="internalText" transform="matrix(1.14279 0 0 1.09603 0 0) matrix(1 0 0 1 -105.251 -19.3882) translate(0.624728 0)"></text><text x="1332.0965171203607" y="143.18965517241384" pixelOffsetX="5" pixelOffsetY="0" dominant-baseline="central" class="internalText" transform="matrix(1.14279 0 0 1.09603 0 0) matrix(1 0 0 1 -166.44 -12.5453) translate(0.624728 0)"></text><text x="1239.0986421667271" y="123.66379310344831" pixelOffsetX="5" pixelOffsetY="0" dominant-baseline="central" class="internalText" transform="matrix(1.14279 0 0 1.09603 0 0) matrix(1 0 0 1 -154.82 -10.8346) translate(0.624728 0)"></text><text x="633.7507152794753" y="172.47844827586206" pixelOffsetX="5" pixelOffsetY="0" dominant-baseline="central" class="internalText" transform="matrix(1.14279 0 0 1.09603 0 0) matrix(1 0 0 1 -79.1843 -15.1114) translate(0.624728 0)"></text><text x="564.8767987171819" y="289.1187786233836" pixelOffsetX="5" pixelOffsetY="0" dominant-baseline="central" class="internalText" transform="matrix(1.14279 0 0 1.09603 0 0) matrix(1 0 0 1 -70.5789 -25.3306) translate(0.624728 0)"></text><text x="663.2999856191881" y="65.08620689655177" pixelOffsetX="5" pixelOffsetY="0" dominant-baseline="central" class="internalText" transform="matrix(1.14279 0 0 1.09603 0 0) matrix(1 0 0 1 -82.8764 -5.70242) translate(0.624728 0)"></text><text x="472.6759364464482" y="177.10249275996765" pixelOffsetX="5" pixelOffsetY="0" dominant-baseline="central" class="internalText" transform="matrix(1.14279 0 0 1.09603 0 0) matrix(1 0 0 1 -59.0588 -15.5165) translate(0.624728 0)"></text><text x="447.3018172344117" y="101.56848775929419" pixelOffsetX="5" pixelOffsetY="0" dominant-baseline="central" class="internalText" transform="matrix(1.14279 0 0 1.09603 0 0) matrix(1 0 0 1 -55.8884 -8.89875) translate(0.624728 0)"></text><text x="19.019801980198032" y="50.78424387964709" pixelOffsetX="5" pixelOffsetY="0" dominant-baseline="central" class="internalText" transform="matrix(1.14279 0 0 1.09603 0 0) matrix(1 0 0 1 -2.37644 -4.44937) translate(0.624728 0)"></text></svg>